<mxfile host="app.diagrams.net" modified="2021-08-26T06:12:33.855Z" agent="5.0 (Macintosh; Intel Mac OS X 11_2_1) AppleWebKit/537.36 (KHTML, like Gecko) Chrome/89.0.4389.90 Safari/537.36" etag="F-dCZQmYR9pcA6_-kBCG" version="14.9.6" type="github">
  <diagram id="EUtWWq-tNDuLtqVCqcBS" name="Page-1">
    <mxGraphModel dx="1227" dy="809" grid="1" gridSize="10" guides="1" tooltips="1" connect="1" arrows="1" fold="1" page="1" pageScale="1" pageWidth="827" pageHeight="1169" math="0" shadow="0">
      <root>
        <mxCell id="0" />
        <mxCell id="1" parent="0" />
      </root>
    </mxGraphModel>
  </diagram>
</mxfile>
